<svg xmlns="http://www.w3.org/2000/svg" width="32" height="32" viewBox="0 0 32 32" shape-rendering="crispEdges"><rect x="5" y="1" width="16" height="1" fill="#000000"/><rect x="5" y="2" width="1" height="28" fill="#000000"/><rect x="6" y="2" width="14" height="6" fill="#ffffff"/><rect x="20" y="2" width="2" height="1" fill="#000000"/><rect x="20" y="3" width="1" height="4" fill="#000000"/><rect x="21" y="3" width="1" height="1" fill="#c0c0c0"/><rect x="22" y="3" width="1" height="1" fill="#000000"/><rect x="21" y="4" width="2" height="1" fill="#c0c0c0"/><rect x="23" y="4" width="1" height="1" fill="#000000"/><rect x="21" y="5" width="3" height="1" fill="#c0c0c0"/><rect x="24" y="5" width="1" height="1" fill="#000000"/><rect x="21" y="6" width="4" height="1" fill="#c0c0c0"/><rect x="25" y="6" width="1" height="1" fill="#000000"/><rect x="20" y="7" width="7" height="1" fill="#000000"/><rect x="6" y="8" width="20" height="2" fill="#ffffff"/><rect x="26" y="8" width="1" height="22" fill="#000000"/><rect x="6" y="10" width="2" height="13" fill="#ffffff"/><rect x="8" y="10" width="16" height="1" fill="#000000"/><rect x="24" y="10" width="2" height="13" fill="#ffffff"/><rect x="8" y="11" width="1" height="11" fill="#000000"/><rect x="9" y="11" width="10" height="1" fill="#00ffff"/><rect x="19" y="11" width="2" height="1" fill="#ffff00"/><rect x="21" y="11" width="2" height="1" fill="#00ffff"/><rect x="23" y="11" width="1" height="11" fill="#000000"/><rect x="9" y="12" width="9" height="1" fill="#00ffff"/><rect x="18" y="12" width="4" height="1" fill="#ffff00"/><rect x="22" y="12" width="1" height="1" fill="#00ffff"/><rect x="9" y="13" width="10" height="1" fill="#00ffff"/><rect x="19" y="13" width="2" height="1" fill="#ffff00"/><rect x="21" y="13" width="2" height="1" fill="#00ffff"/><rect x="9" y="14" width="5" height="1" fill="#00ffff"/><rect x="14" y="14" width="1" height="1" fill="#ffffff"/><rect x="15" y="14" width="8" height="1" fill="#00ffff"/><rect x="9" y="15" width="4" height="1" fill="#00ffff"/><rect x="13" y="15" width="3" height="1" fill="#ffffff"/><rect x="16" y="15" width="7" height="1" fill="#00ffff"/><rect x="9" y="16" width="3" height="1" fill="#00ffff"/><rect x="12" y="16" width="1" height="1" fill="#ffffff"/><rect x="13" y="16" width="1" height="1" fill="#808080"/><rect x="14" y="16" width="1" height="1" fill="#ffffff"/><rect x="15" y="16" width="2" height="1" fill="#808080"/><rect x="17" y="16" width="6" height="1" fill="#00ffff"/><rect x="9" y="17" width="2" height="1" fill="#00ffff"/><rect x="11" y="17" width="7" height="1" fill="#808080"/><rect x="18" y="17" width="3" height="1" fill="#00ffff"/><rect x="21" y="17" width="2" height="1" fill="#00ff00"/><rect x="9" y="18" width="1" height="1" fill="#00ffff"/><rect x="10" y="18" width="9" height="1" fill="#808080"/><rect x="19" y="18" width="4" height="1" fill="#00ff00"/><rect x="9" y="19" width="8" height="1" fill="#808080"/><rect x="17" y="19" width="6" height="1" fill="#00ff00"/><rect x="9" y="20" width="14" height="2" fill="#008000"/><rect x="8" y="22" width="16" height="1" fill="#000000"/><rect x="6" y="23" width="20" height="2" fill="#ffffff"/><rect x="6" y="25" width="2" height="1" fill="#ffffff"/><rect x="8" y="25" width="15" height="1" fill="#808080"/><rect x="23" y="25" width="3" height="1" fill="#ffffff"/><rect x="6" y="26" width="20" height="1" fill="#ffffff"/><rect x="6" y="27" width="2" height="1" fill="#ffffff"/><rect x="8" y="27" width="10" height="1" fill="#808080"/><rect x="18" y="27" width="8" height="1" fill="#ffffff"/><rect x="6" y="28" width="20" height="2" fill="#ffffff"/><rect x="5" y="30" width="22" height="1" fill="#000000"/></svg>
