<svg xmlns="http://www.w3.org/2000/svg" width="32" height="32" viewBox="0 0 32 32" shape-rendering="crispEdges"><rect x="0" y="6" width="32" height="1" fill="#000000"/><rect x="0" y="7" width="2" height="2" fill="#000000"/><rect x="2" y="7" width="2" height="2" fill="#ffffff"/><rect x="4" y="7" width="2" height="2" fill="#000000"/><rect x="6" y="7" width="2" height="2" fill="#ffffff"/><rect x="8" y="7" width="2" height="2" fill="#000000"/><rect x="10" y="7" width="2" height="2" fill="#ffffff"/><rect x="12" y="7" width="2" height="2" fill="#000000"/><rect x="14" y="7" width="2" height="2" fill="#ffffff"/><rect x="16" y="7" width="2" height="2" fill="#000000"/><rect x="18" y="7" width="2" height="2" fill="#ffffff"/><rect x="20" y="7" width="2" height="2" fill="#000000"/><rect x="22" y="7" width="2" height="2" fill="#ffffff"/><rect x="24" y="7" width="2" height="2" fill="#000000"/><rect x="26" y="7" width="2" height="2" fill="#ffffff"/><rect x="28" y="7" width="2" height="2" fill="#000000"/><rect x="30" y="7" width="2" height="2" fill="#ffffff"/><rect x="0" y="9" width="32" height="1" fill="#000000"/><rect x="0" y="10" width="2" height="12" fill="#000000"/><rect x="2" y="10" width="13" height="1" fill="#00ffff"/><rect x="15" y="10" width="2" height="12" fill="#000000"/><rect x="17" y="10" width="13" height="2" fill="#00ffff"/><rect x="30" y="10" width="2" height="12" fill="#000000"/><rect x="2" y="11" width="9" height="1" fill="#00ffff"/><rect x="11" y="11" width="2" height="1" fill="#ffff00"/><rect x="13" y="11" width="2" height="1" fill="#00ffff"/><rect x="2" y="12" width="8" height="2" fill="#00ffff"/><rect x="10" y="12" width="4" height="2" fill="#ffff00"/><rect x="14" y="12" width="1" height="2" fill="#00ffff"/><rect x="17" y="12" width="1" height="1" fill="#00ffff"/><rect x="18" y="12" width="2" height="1" fill="#ffff00"/><rect x="20" y="12" width="10" height="1" fill="#00ffff"/><rect x="17" y="13" width="4" height="1" fill="#ffff00"/><rect x="21" y="13" width="9" height="1" fill="#00ffff"/><rect x="2" y="14" width="9" height="1" fill="#00ffff"/><rect x="11" y="14" width="2" height="1" fill="#ffff00"/><rect x="13" y="14" width="2" height="1" fill="#00ffff"/><rect x="17" y="14" width="1" height="1" fill="#00ffff"/><rect x="18" y="14" width="2" height="1" fill="#ffff00"/><rect x="20" y="14" width="10" height="1" fill="#00ffff"/><rect x="2" y="15" width="4" height="1" fill="#00ffff"/><rect x="6" y="15" width="1" height="1" fill="#ffffff"/><rect x="7" y="15" width="8" height="1" fill="#00ffff"/><rect x="17" y="15" width="4" height="1" fill="#00ffff"/><rect x="21" y="15" width="1" height="1" fill="#ffffff"/><rect x="22" y="15" width="8" height="1" fill="#00ffff"/><rect x="2" y="16" width="3" height="1" fill="#00ffff"/><rect x="5" y="16" width="3" height="1" fill="#ffffff"/><rect x="8" y="16" width="7" height="1" fill="#00ffff"/><rect x="17" y="16" width="3" height="1" fill="#00ffff"/><rect x="20" y="16" width="3" height="1" fill="#ffffff"/><rect x="23" y="16" width="7" height="1" fill="#00ffff"/><rect x="2" y="17" width="2" height="1" fill="#00ffff"/><rect x="4" y="17" width="1" height="1" fill="#ffffff"/><rect x="5" y="17" width="1" height="1" fill="#808080"/><rect x="6" y="17" width="1" height="1" fill="#ffffff"/><rect x="7" y="17" width="2" height="1" fill="#808080"/><rect x="9" y="17" width="4" height="1" fill="#00ffff"/><rect x="13" y="17" width="2" height="1" fill="#00ff00"/><rect x="17" y="17" width="2" height="1" fill="#00ffff"/><rect x="19" y="17" width="1" height="1" fill="#ffffff"/><rect x="20" y="17" width="1" height="1" fill="#808080"/><rect x="21" y="17" width="1" height="1" fill="#ffffff"/><rect x="22" y="17" width="2" height="1" fill="#808080"/><rect x="24" y="17" width="4" height="1" fill="#00ffff"/><rect x="28" y="17" width="2" height="1" fill="#00ff00"/><rect x="2" y="18" width="1" height="1" fill="#00ffff"/><rect x="3" y="18" width="7" height="1" fill="#808080"/><rect x="10" y="18" width="1" height="1" fill="#00ffff"/><rect x="11" y="18" width="4" height="2" fill="#00ff00"/><rect x="17" y="18" width="1" height="1" fill="#00ffff"/><rect x="18" y="18" width="7" height="1" fill="#808080"/><rect x="25" y="18" width="1" height="1" fill="#00ffff"/><rect x="26" y="18" width="4" height="2" fill="#00ff00"/><rect x="2" y="19" width="9" height="1" fill="#808080"/><rect x="17" y="19" width="9" height="1" fill="#808080"/><rect x="2" y="20" width="2" height="1" fill="#00ff00"/><rect x="4" y="20" width="5" height="1" fill="#808080"/><rect x="9" y="20" width="6" height="1" fill="#00ff00"/><rect x="17" y="20" width="2" height="1" fill="#00ff00"/><rect x="19" y="20" width="5" height="1" fill="#808080"/><rect x="24" y="20" width="6" height="1" fill="#00ff00"/><rect x="2" y="21" width="13" height="1" fill="#008000"/><rect x="17" y="21" width="13" height="1" fill="#008000"/><rect x="0" y="22" width="32" height="1" fill="#000000"/><rect x="0" y="23" width="2" height="2" fill="#000000"/><rect x="2" y="23" width="2" height="2" fill="#ffffff"/><rect x="4" y="23" width="2" height="2" fill="#000000"/><rect x="6" y="23" width="2" height="2" fill="#ffffff"/><rect x="8" y="23" width="2" height="2" fill="#000000"/><rect x="10" y="23" width="2" height="2" fill="#ffffff"/><rect x="12" y="23" width="2" height="2" fill="#000000"/><rect x="14" y="23" width="2" height="2" fill="#ffffff"/><rect x="16" y="23" width="2" height="2" fill="#000000"/><rect x="18" y="23" width="2" height="2" fill="#ffffff"/><rect x="20" y="23" width="2" height="2" fill="#000000"/><rect x="22" y="23" width="2" height="2" fill="#ffffff"/><rect x="24" y="23" width="2" height="2" fill="#000000"/><rect x="26" y="23" width="2" height="2" fill="#ffffff"/><rect x="28" y="23" width="2" height="2" fill="#000000"/><rect x="30" y="23" width="2" height="2" fill="#ffffff"/><rect x="0" y="25" width="32" height="1" fill="#000000"/></svg>
