<svg xmlns="http://www.w3.org/2000/svg" width="20" height="20" viewBox="0 0 20 20" shape-rendering="crispEdges"><rect x="2" y="2" width="7" height="1" fill="#000000"/><rect x="2" y="3" width="1" height="13" fill="#000000"/><rect x="3" y="3" width="5" height="1" fill="#ffffff"/><rect x="8" y="3" width="2" height="1" fill="#000000"/><rect x="3" y="4" width="1" height="1" fill="#ffffff"/><rect x="4" y="4" width="3" height="1" fill="#808080"/><rect x="7" y="4" width="1" height="1" fill="#ffffff"/><rect x="8" y="4" width="1" height="1" fill="#000000"/><rect x="9" y="4" width="1" height="1" fill="#c0c0c0"/><rect x="10" y="4" width="1" height="1" fill="#000000"/><rect x="3" y="5" width="5" height="1" fill="#ffffff"/><rect x="8" y="5" width="4" height="1" fill="#000000"/><rect x="3" y="6" width="1" height="1" fill="#ffffff"/><rect x="4" y="6" width="6" height="1" fill="#808080"/><rect x="10" y="6" width="1" height="1" fill="#ffffff"/><rect x="11" y="6" width="1" height="1" fill="#000000"/><rect x="3" y="7" width="6" height="1" fill="#ffffff"/><rect x="9" y="7" width="4" height="1" fill="#000000"/><rect x="3" y="8" width="1" height="1" fill="#ffffff"/><rect x="4" y="8" width="4" height="1" fill="#808080"/><rect x="8" y="8" width="1" height="1" fill="#000000"/><rect x="9" y="8" width="4" height="1" fill="#00ffff"/><rect x="13" y="8" width="1" height="1" fill="#000000"/><rect x="3" y="9" width="4" height="1" fill="#ffffff"/><rect x="7" y="9" width="1" height="4" fill="#000000"/><rect x="8" y="9" width="1" height="2" fill="#00ffff"/><rect x="9" y="9" width="1" height="2" fill="#ffffff"/><rect x="10" y="9" width="4" height="2" fill="#00ffff"/><rect x="14" y="9" width="1" height="4" fill="#000000"/><rect x="3" y="10" width="1" height="1" fill="#ffffff"/><rect x="4" y="10" width="3" height="1" fill="#808080"/><rect x="3" y="11" width="4" height="1" fill="#ffffff"/><rect x="8" y="11" width="6" height="2" fill="#00ffff"/><rect x="3" y="12" width="1" height="1" fill="#ffffff"/><rect x="4" y="12" width="3" height="1" fill="#808080"/><rect x="3" y="13" width="5" height="1" fill="#ffffff"/><rect x="8" y="13" width="1" height="1" fill="#000000"/><rect x="9" y="13" width="4" height="1" fill="#00ffff"/><rect x="13" y="13" width="3" height="1" fill="#000000"/><rect x="3" y="14" width="1" height="1" fill="#ffffff"/><rect x="4" y="14" width="5" height="1" fill="#808080"/><rect x="9" y="14" width="5" height="1" fill="#000000"/><rect x="14" y="14" width="2" height="1" fill="#000080"/><rect x="16" y="14" width="1" height="1" fill="#000000"/><rect x="3" y="15" width="8" height="1" fill="#ffffff"/><rect x="11" y="15" width="1" height="1" fill="#000000"/><rect x="14" y="15" width="1" height="1" fill="#000000"/><rect x="15" y="15" width="2" height="1" fill="#000080"/><rect x="17" y="15" width="1" height="1" fill="#000000"/><rect x="2" y="16" width="10" height="1" fill="#000000"/><rect x="15" y="16" width="1" height="1" fill="#000000"/><rect x="16" y="16" width="2" height="1" fill="#000080"/><rect x="18" y="16" width="1" height="1" fill="#000000"/><rect x="16" y="17" width="3" height="1" fill="#000000"/></svg>
